<svg xmlns="http://www.w3.org/2000/svg" viewBox="0 0 1524.972041 297.580625" preserveAspectRatio="xMidYMid meet" role="img" aria-label="delight.ai">
<g transform="translate(-37.037458,548.669852) scale(0.100000,-0.100000)"
fill="#000000" stroke="none">
<path d="M1615 5480 c-50 -19 -50 -20 -55 -403 -5 -327 -7 -361 -22 -371 -15
-9 -59 31 -302 277 -244 246 -289 287 -314 287 -23 0 -45 -15 -97 -67 -135
-134 -157 -162 -157 -189 0 -21 57 -84 286 -313 157 -158 286 -292 286 -299 0
-29 -46 -32 -432 -32 -324 0 -398 -3 -414 -14 -17 -13 -19 -30 -22 -175 -3
-160 -3 -161 22 -186 l25 -25 391 0 c388 0 430 -3 430 -34 0 -7 -122 -134
-271 -282 -149 -148 -280 -282 -289 -298 -27 -42 -14 -66 93 -174 96 -98 137
-127 165 -118 9 3 143 132 297 286 153 154 287 280 296 280 9 0 20 -7 23 -16
3 -9 6 -193 6 -410 0 -381 1 -395 20 -414 18 -18 33 -20 179 -20 137 0 162 2
180 18 20 17 21 25 25 424 2 223 7 411 10 417 4 6 15 11 24 11 9 0 141 -125
292 -279 152 -153 286 -283 298 -290 34 -18 59 -1 175 117 76 77 107 116 107
133 0 18 -70 94 -285 309 -283 283 -311 318 -269 334 9 3 172 6 363 6 337 0
349 1 375 21 l26 20 0 160 c0 146 -2 161 -20 179 -19 19 -33 20 -538 20 -432
0 -521 2 -538 14 -18 14 -19 32 -20 536 -2 519 -2 522 -23 544 -20 19 -33 21
-164 23 -78 0 -151 -2 -162 -7z"/>
<path d="M5007 5285 c-24 -8 -33 -17 -37 -40 -3 -16 -5 -187 -3 -380 2 -348
-2 -415 -24 -422 -7 -3 -22 15 -34 39 -67 132 -178 235 -299 277 -45 16 -97
25 -172 28 -97 5 -116 3 -193 -21 -188 -59 -319 -174 -415 -366 -127 -252
-130 -586 -8 -846 43 -93 81 -146 153 -219 69 -72 120 -105 219 -147 63 -27
86 -31 196 -35 127 -5 149 -2 246 35 111 42 230 166 281 294 14 36 17 38 32
24 12 -13 16 -41 17 -134 1 -64 2 -127 3 -139 2 -38 36 -46 189 -48 127 -1
146 1 168 17 l24 19 0 1019 c0 913 -2 1020 -16 1034 -19 19 -10 18 -167 20
-70 1 -142 -3 -160 -9z m-269 -896 c77 -38 139 -91 181 -157 32 -51 71 -194
71 -262 0 -71 -39 -222 -70 -270 -94 -146 -268 -222 -437 -191 -89 16 -142 42
-209 103 -66 61 -98 114 -125 205 -67 226 28 470 222 568 69 36 119 45 217 41
70 -3 94 -9 150 -37z"/>
<path d="M8015 5281 c-82 -37 -129 -120 -123 -216 5 -84 47 -143 128 -179 71
-32 110 -33 175 -2 145 67 180 234 72 349 -63 67 -167 87 -252 48z"/>
<path d="M10223 5290 c-12 -5 -26 -18 -32 -29 -8 -13 -11 -333 -11 -1024 0
-975 1 -1005 19 -1028 19 -23 23 -24 177 -23 151 1 158 1 176 23 17 22 18 51
18 487 l0 464 25 62 c31 77 72 120 150 161 51 26 71 31 135 31 138 0 233 -64
286 -194 l24 -60 0 -468 c0 -458 0 -469 20 -487 18 -16 40 -19 176 -19 154 -1
156 -1 176 24 19 24 19 37 16 585 l-4 560 -27 74 c-50 138 -106 212 -210 279
-122 80 -288 102 -428 57 -120 -38 -196 -99 -279 -222 -19 -29 -39 -51 -45
-49 -6 2 -12 143 -15 384 -4 324 -7 384 -20 397 -12 11 -48 16 -160 19 -80 2
-155 0 -167 -4z"/>
<path d="M15305 5281 c-131 -59 -166 -234 -69 -341 71 -79 159 -99 249 -56
150 71 181 252 63 364 -56 52 -168 68 -243 33z"/>
<path d="M7303 5275 l-23 -16 0 -1018 0 -1018 23 -21 c22 -21 33 -22 169 -22
132 0 148 2 172 21 l26 20 0 1013 c0 858 -2 1015 -14 1032 -13 17 -29 19 -173
22 -132 2 -162 0 -180 -13z"/>
<path d="M2521 5254 c-127 -45 -191 -132 -191 -260 0 -174 149 -290 326 -254
50 11 66 20 114 69 48 48 59 66 74 123 18 66 18 67 -4 139 -30 99 -78 148
-174 178 -80 25 -87 25 -145 5z"/>
<path d="M12020 5040 c-18 -18 -20 -33 -20 -145 0 -132 -9 -170 -44 -179 -11
-3 -62 -6 -112 -6 -124 0 -124 0 -124 -161 0 -167 1 -169 123 -169 54 0 102
-6 117 -13 l25 -13 5 -424 5 -425 34 -78 c41 -96 99 -158 184 -197 79 -37 177
-50 367 -50 190 0 183 -7 178 179 -2 89 -7 134 -16 143 -9 9 -57 15 -152 18
-120 4 -142 8 -167 26 -51 38 -51 44 -54 438 -3 351 -2 369 16 382 14 11 61
14 194 14 97 0 181 4 188 8 23 14 33 64 33 160 0 53 -3 107 -6 118 -10 37 -45
44 -223 44 -213 0 -206 -5 -203 145 3 117 -9 180 -38 195 -10 5 -80 10 -154
10 -123 0 -138 -2 -156 -20z"/>
<path d="M9065 4784 c-255 -40 -415 -142 -502 -319 -35 -69 -40 -89 -53 -190
-13 -100 8 -226 53 -315 37 -75 141 -186 204 -218 76 -39 68 -56 -40 -96 -83
-30 -139 -77 -167 -138 -25 -55 -25 -72 4 -134 25 -53 83 -107 135 -125 41
-15 39 -35 -5 -49 -135 -45 -214 -102 -254 -185 -19 -40 -22 -58 -18 -129 4
-72 8 -87 36 -128 77 -112 201 -178 417 -223 121 -25 142 -27 310 -22 144 4
201 10 287 30 254 60 392 152 472 317 30 63 31 70 31 195 0 126 -1 132 -31
190 -61 116 -162 192 -316 239 -81 25 -99 26 -295 27 -287 1 -337 5 -372 35
-38 32 -44 58 -19 89 20 25 20 25 141 19 205 -11 392 32 511 117 45 32 119
116 142 160 20 39 34 155 25 209 -10 61 -54 133 -108 177 -54 44 -71 72 -52
84 8 5 82 9 164 9 205 0 195 -9 195 175 0 143 0 145 -25 161 -22 14 -37 15
-127 5 -57 -6 -143 -19 -191 -28 -73 -14 -95 -15 -130 -5 -194 57 -337 79
-422 66z m211 -329 c67 -39 100 -85 118 -163 23 -103 8 -186 -49 -257 -48 -59
-106 -85 -194 -85 -82 0 -122 14 -175 60 -47 41 -65 77 -77 149 -18 116 17
214 103 284 64 52 196 58 274 12z m220 -1289 c69 -32 94 -66 94 -127 0 -42 -5
-55 -37 -90 -42 -47 -66 -60 -149 -83 -146 -39 -364 -38 -491 4 -80 27 -138
79 -149 136 -12 65 40 142 116 173 14 5 142 10 295 10 263 1 271 0 321 -23z"/>
<path d="M6155 4760 c-271 -55 -478 -240 -578 -519 -31 -85 -32 -89 -32 -276
0 -190 0 -190 34 -288 40 -119 69 -173 134 -252 100 -121 209 -196 367 -251
82 -28 92 -29 265 -29 177 0 181 1 273 32 128 45 208 92 297 175 63 59 75 75
75 102 0 38 -13 52 -128 130 -104 70 -123 71 -193 11 -152 -130 -360 -155
-540 -64 -96 48 -214 202 -190 248 6 10 18 21 27 25 8 3 258 6 554 6 l539 0
21 28 c21 26 22 34 18 197 -5 155 -7 176 -32 240 -107 272 -292 433 -559 486
-119 23 -232 23 -352 -1z m299 -326 c105 -27 192 -97 240 -196 30 -62 25 -101
-16 -111 -38 -11 -684 -8 -712 3 -34 13 -34 47 1 108 97 171 286 247 487 196z"/>
<path d="M7935 4725 l-25 -24 0 -736 0 -736 25 -25 c25 -25 26 -25 180 -22
123 2 157 6 170 19 14 13 15 99 15 765 l0 749 -21 18 c-18 14 -43 17 -171 17
-145 0 -150 -1 -173 -25z"/>
<path d="M14143 4740 c-214 -45 -385 -183 -448 -360 -14 -39 -14 -46 0 -66 19
-29 40 -40 90 -49 22 -4 68 -16 102 -28 81 -28 104 -20 158 58 33 48 54 67
106 93 61 32 68 33 154 30 75 -3 98 -8 141 -32 59 -32 110 -93 125 -149 12
-47 7 -64 -23 -76 -13 -5 -138 -21 -278 -35 -321 -32 -393 -53 -511 -152 -90
-75 -136 -177 -146 -321 -5 -71 -2 -94 22 -170 15 -48 40 -106 56 -129 47 -69
131 -136 216 -174 75 -33 83 -34 203 -34 115 0 130 2 195 28 100 41 172 101
220 181 6 9 19 17 30 18 18 2 21 -6 26 -77 8 -113 12 -116 190 -116 126 0 141
2 159 20 19 19 20 33 20 513 0 278 -4 519 -10 553 -14 83 -68 197 -127 265
-84 98 -138 134 -270 181 -79 28 -102 31 -223 34 -74 2 -154 -1 -177 -6z m415
-896 c26 -18 29 -60 8 -146 -17 -74 -67 -146 -130 -188 -107 -71 -294 -77
-375 -12 -45 36 -81 97 -81 139 0 109 88 176 257 193 54 6 134 14 178 19 118
12 119 12 143 -5z"/>
<path d="M15250 4743 c-40 -14 -40 -9 -40 -778 0 -624 2 -744 14 -761 13 -17
30 -19 174 -22 l159 -3 22 27 21 27 -2 739 -3 740 -24 19 c-20 17 -40 19 -165
18 -77 0 -148 -3 -156 -6z"/>
<path d="M13145 3565 c-142 -66 -178 -246 -72 -355 90 -92 226 -93 314 -2 50
51 68 104 60 181 -7 67 -40 118 -103 159 -40 27 -56 32 -108 32 -34 -1 -74 -7
-91 -15z"/>
</g>
</svg>
