<?xml version="1.0" encoding="UTF-8"?>
<svg id="Layer_1" xmlns="http://www.w3.org/2000/svg" version="1.1" viewBox="0 0 679.8 343.74">
  <!-- Generator: Adobe Illustrator 30.6.0, SVG Export Plug-In . SVG Version: 2.1.4 Build 109)  -->
  <defs>
    <style>
      .st0 {
        fill: #231f20;
      }
    </style>
  </defs>
  <path class="st0" d="M644.99,0l-23.69,47.66,7.62,101.09-249.35,84.89.52,4.63,96.4.07,203.32.14v.77s-37.5,34.62-37.5,34.62l-15.87,63.29-280.96.26-34.63.03c-6.94,0-13.37-2.02-19.27-5.29-12.76-7.29-19.41-20.57-19.37-35.17l.07-26.95-216.44,73.7,10.99-36.45c.82-2.73.49-4.96-.31-7.8-9.35-29.61-19.3-58.77-29.97-87.92-.92-2.35-1.95-4.01-3.94-5.42L0,183.01l71.46-24.37-.11-61.84c-6.22.21-12.15-1.54-16.51-5.94-4.42-4.6-6.28-10.61-5.92-17.08l5.23-32.5,138.45.08.18,18.77c10.48-.23,19.1-.11,28.36,5.62,7.16-4.28,14.71-5.66,23.01-5.6l39.31.26c24.64,1.79,38.84,26.85,33.48,50.64L643.02.25l1.98-.25ZM42.3,206.02c10.05,26.82,19.35,53.31,28.07,80.37l4.21,14.75-1.52,10.57c-1.75,7.18-4.34,13.81-6.78,21.09l212.97-72.79.5,40.36c.14,11.13,6.68,20.7,16.17,25.9,5.66,2.95,11.38,4.05,17.91,4.06l306.75.13,15.64-60.61,25.98-24.49-288.27.2-2.72-16.75,250.55-84.79-7.88-97.99,17.22-34.35-323.7,110.49c2.42-9.29,3.61-18.04,2.31-27.05-.76-5.04-2.19-9.73-4.65-14.06-5.06-9.12-14.13-13.71-24.51-13.65l-43.13.25c-6.08.04-11.1,3.98-16.4,6.56-11-8.04-21.93-7.23-35.58-6.37v-19.31s-125.35.12-125.35.12l-3.95,26.15c-.52,6.12,2.46,11.2,8.21,13.33,4.45,1.7,9.3,1.96,14.14,1.97l.08,73.96-62.77,21.31,22.53,15.04c1.82,1.55,2.98,2.99,3.95,5.59Z"/>
  <path class="st0" d="M185.3,276.96l-97.22,33.22c1.51-6.68.16-13.37-2.01-19.76l-26.75-78.7c-2.36-6.94-4.8-13.28-9.48-18.95l-2.98-2.79,98.74-33.67c11.98-4.09,24.92-2.5,33.39,7.16,3.93,4.48,6.36,9.58,8.31,15.3l17.52,51.46c1.93,5.66,3.71,10.83,3.86,16.87.38,15.6-8.76,24.86-23.37,29.86ZM162.67,260.06c.94-3.16.34-6.53-.71-9.57l-20.2-58.83-2.69-5.51c-1.25-2.56-3.94-3.44-6.79-3.51-2.82.41-5.72.81-8.42,1.81l-21.59,8.06,28.26,82.48,25.44-8.96c2.78-.98,5.79-2.99,6.68-5.98Z"/>
  <path class="st0" d="M426.09,96.18l51.78-17.19c-.11,5.81,1.63,10.84,4.52,15.73l23.07,34.62-3.47-58.58,51.73-17.61,33.07,48.32-2.22-37.04c-.43-7.13-2.39-13.79-6.26-19.73l23.77-7.91c-1.84,5.57-2.36,10.64-1.98,16.47l6.03,80.43-43.78,15.29-41.73-61.24,4.37,73.56-43.92,15.04-41.85-64.34c-3.56-6.01-7.45-11.17-13.12-15.84Z"/>
  <path class="st0" d="M444.57,189.03l-74.49,24.64c-14.08,5.17-27.83,10.79-38.34-1.99-4.37-5.32-8.44-11.23-10.66-17.95l-9.07-27.45c-1.79-5.42-2.02-11.22-1.38-16.78,1.14-9.92,8.49-17.16,17.79-20.21l66.39-21.76c8.4-2.76,18.22-3.07,24.48,3.28,2.05,2.65,5.24,5.08,6.42,8.42l11.21,31.79-73.98,25.93,4.87,12.1c1.6,3.97,4.97,5.9,9.28,5.28,5.75-1.06,11.18-2.77,16.73-4.85l32-11.02c5.57-2.51,10.62-4.87,15.31-9.18l3.42,19.77ZM389.77,149.79l-5.25-15.18c-1.25-3.63-4.24-4.96-8.03-4.16l-19.8,6.9c-3.12,1.43-4.79,4.18-3.78,7.64l4.51,15.57,32.35-10.78Z"/>
  <path class="st0" d="M611.62,259.62l15.18.09c-2.05,3.43-3.61,6.61-4.5,10.57l-12.05,47.06-28.73.34-12.34-44.04-12.02,43.83-28.75.13-11.79-45.95c-.89-4.37-2.37-8.1-4.49-12.04l33.58.24c-1.05,3.8-1.04,7.16-.22,10.71l6.51,24.28,9.6-35.05,33.82-.1,9.85,34.78,6.51-23.73c.63-3.77.59-7.31-.17-11.12Z"/>
  <path class="st0" d="M476.12,306.72l20.88-.11c3.52-.02,6.71-.94,10.29-2.02l-1.91,11.93-57.71-.66c-5.46-.06-9.85-3.43-11.75-8.11-1.62-4-2.85-8.26-2.79-12.63l.26-19.07c.12-8.85,6.26-17.17,16.11-17.03l44.54.62c3.9.05,7.31,1.42,10.21,3.74,2.25,3,4.18,6.67,4.19,10.59l.03,19.07-47.86.3.41,8.04c.13,2.48,1.74,4.7,4.35,4.82l10.74.52ZM481.51,282.97l-.04-9.83c0-2.28-1.57-3.6-3.71-4.03h-12.91c-1.88.37-3.57,1.56-3.68,3.61l-.53,10.06,20.88.18Z"/>
  <path class="st0" d="M190.73,125.68l.12-30.24c.01-2.92-2.13-5.47-5.07-5.49l-9.67-.07c-2.64-.02-5.16,2.44-5.17,5.42l-.08,31.29c0,2.04,1.14,4.23,1.8,6.25l-27.13-.4c.67-2.84,1.35-5.39,1.35-8.27l.02-54.62c-.1-2.27-.47-4.16-1.17-6.32h25.06s.04,21.82.04,21.82c2.57-2.27,4.71-3.42,7.66-3.38l26.74.2c4.79,1.59,8.47,5.28,9.69,10.19l.1,33.06c0,2.44.84,4.77,1.55,7.63l-27.31.02c.79-2.32,1.45-4.61,1.46-7.1Z"/>
  <path class="st0" d="M328.94,304.52l19.3.22c4.62.05,8.97-.64,13.37-1.91l-2.35,12.9-48.41.17c-9.15-.11-16.17-6.49-17.42-15.54l.14-43.65c.03-8.85,7.42-16.97,16.62-16.99l47.9-.1,2.13,13.15c-2.98-1.33-5.96-1.86-9.24-2.15l-23.03.11c-3.93.02-6.7,3.19-6.7,6.93l.07,39.32c0,4.1,3.48,7.49,7.61,7.54Z"/>
  <path class="st0" d="M264.51,125.02l19.14-.11c3.26-.02,6.22-.9,9.65-1.85l-1.74,10.91-53.1-.62c-4.87-.06-8.9-3.04-10.62-7.21-1.62-3.94-2.71-8.19-2.69-12.47l.06-12.98c.02-3.77.44-7.34,1.85-10.87,1.99-5,6.7-8.71,12.45-8.63l41.69.52c3.77.05,7.08,1.45,9.74,3.86,1.68,2.6,3.35,5.72,3.38,8.91l.17,17.9-44.07.32.45,7.68c.11,1.97,1.6,3.92,3.62,4.04l10.03.59ZM269.58,103.14l.03-9.17c-.2-2.02-1.42-3.11-3.43-3.56l-12.51.09c-1.45.57-2.71,1.9-2.78,3.47l-.41,9.06,19.11.12Z"/>
  <path class="st0" d="M119.52,132.6l-29.08.02c1.2-2.83,1.76-5.14,1.76-7.95l-.02-51.75-16.52-.06c-1.9.13-3.41.62-5.51,1.45l2.61-11.05h64.61s2.31,10.98,2.31,10.98l-4.57-1.19-17.29.05-.02,51.09c.26,2.86.75,4.9,1.72,8.41Z"/>
  <path class="st0" d="M400.61,280.56c-.8,3.15-.54,6.18-.52,9.27l.12,18.74c.02,2.76.64,5.22,2.08,7.73l-31.28.22c2.02-3.54,1.88-7.29,1.86-11.37l-.18-34.98c.27-3.6-.33-6.8-1.76-10.29l26.56-.13,1.1,8.48c2-5.12,5.54-8.36,10.83-8.45l17.56-.31.47,17.93c-1.76-1.42-3.39-2.28-5.48-2.85l-14.51.1c-3.33.02-6.01,2.54-6.86,5.9Z"/>
  <path class="st0" d="M300.44,169.88c-2.79-1.33-6.18-2.09-9.53-1.2-7.6,2.03-15.09,4.27-22.19,7.43-5.53,2.46-8.24,7.54-7.74,13.42.44,5.06,2.35,9.41,4,14.2l11.07,32.11c1.12,3.26,3.68,5.51,6.33,8.03l-49.19,16.82c2.02-7.41-.7-12.91-2.8-19.09l-17.5-51.49c-2.17-6.37-3.17-11.99-9.21-17.88l41.72-14.16,6.29,13.86c-.02-5.27.73-9.79,3.8-13.82,3.03-3.35,6.82-5.95,11.23-7.48l24.42-8.44,9.88,27.24.15.33-.32.48-.4-.36Z"/>
</svg>