<svg width="180" height="194" viewBox="0 0 180 194" fill="none" xmlns="http://www.w3.org/2000/svg">
<g clip-path="url(#clip0_4537_626)">
<path fill-rule="evenodd" clip-rule="evenodd" d="M152.306 134.521C151.054 134.521 150.272 135.876 150.898 136.961L163.99 159.657C164.714 160.913 163.561 162.418 162.162 162.043L122.454 151.394C120.719 150.928 118.936 151.959 118.471 153.695L107.831 193.435C107.456 194.836 105.576 195.083 104.852 193.828L91.757 171.128C91.1316 170.043 89.5669 170.043 88.9408 171.128L75.8456 193.828C75.1214 195.083 73.2422 194.836 72.8675 193.435L62.2272 153.695C61.7625 151.959 59.9793 150.928 58.2446 151.394L18.5364 162.043C17.1372 162.418 15.9833 160.913 16.7075 159.657L29.8001 136.961C30.4258 135.876 29.6436 134.521 28.392 134.521L2.20824 134.52C0.759724 134.52 0.0343171 132.768 1.05859 131.743L30.1273 102.652C31.3973 101.38 31.3973 99.32 30.1273 98.0492L1.0586 68.957C0.0343382 67.9318 0.75978 66.1791 2.20831 66.1791L28.3892 66.1795C29.6408 66.1795 30.4231 64.8235 29.7973 63.7387L16.7075 41.0479C15.9833 39.7924 17.1373 38.2873 18.5364 38.6626L58.2446 49.3112C59.9793 49.7764 61.7624 48.7461 62.2273 47.01L72.8675 7.26975C73.2422 5.86946 75.1214 5.62185 75.8456 6.87729L88.9408 29.5771C89.5669 30.662 91.1309 30.662 91.757 29.5771L104.852 6.87729C105.576 5.62185 107.456 5.86945 107.83 7.26975L118.471 47.01C118.936 48.7461 120.719 49.7764 122.453 49.3112L162.162 38.6626C163.561 38.2873 164.714 39.7924 163.99 41.0479L150.901 63.7387C150.275 64.8235 151.057 66.1795 152.308 66.1795L178.49 66.1791C179.939 66.1791 180.664 67.9318 179.64 68.957L150.572 98.0492C149.302 99.32 149.302 101.38 150.572 102.652L179.64 131.743C180.664 132.768 179.939 134.52 178.49 134.52L152.306 134.521ZM142.313 72.1444C143.488 70.9668 142.348 68.9908 140.742 69.4219L105.382 78.9043C103.647 79.3697 101.864 78.3393 101.399 76.6031L91.9195 41.1968C91.4888 39.5888 89.209 39.5888 88.7783 41.1968L79.2985 76.6031C78.8342 78.3393 77.051 79.3697 75.3161 78.9043L39.9574 69.4219C38.3506 68.9911 37.2106 70.9675 38.3868 72.1444L64.2712 98.0492C65.5411 99.32 65.5411 101.381 64.2712 102.652L38.3807 128.562C37.2045 129.74 38.3445 131.716 39.9513 131.285L75.3161 121.801C77.051 121.335 78.8342 122.366 79.2985 124.102L88.7783 159.508C89.209 161.117 91.4888 161.117 91.9195 159.508L101.399 124.102C101.864 122.366 103.647 121.335 105.382 121.801L140.748 131.285C142.355 131.716 143.495 129.74 142.318 128.563L116.428 102.652C115.158 101.381 115.158 99.32 116.428 98.0492L142.313 72.1444Z" fill="#FF8800"/>
</g>
<defs>
<clipPath id="clip0_4537_626">
<rect width="180" height="194" fill="white"/>
</clipPath>
</defs>
</svg>
